<?xml version="1.0" encoding="utf-8"?>
<!-- Generator: Adobe Illustrator 16.0.0, SVG Export Plug-In . SVG Version: 6.00 Build 0)  -->
<!DOCTYPE svg PUBLIC "-//W3C//DTD SVG 1.1//EN" "http://www.w3.org/Graphics/SVG/1.1/DTD/svg11.dtd">
<svg version="1.1" id="Layer_1" xmlns="http://www.w3.org/2000/svg" xmlns:xlink="http://www.w3.org/1999/xlink" x="0px" y="0px"
	 width="500px" height="500px" viewBox="0 0 500 500" enable-background="new 0 0 500 500" xml:space="preserve">
<g>
	<circle fill="#E6E7E8" cx="250" cy="250" r="179.914"/>
	<g>
		<path fill="#414042" d="M57.586,250c0.182,47.246,17.613,92.488,48.733,127.95c30.657,34.934,74.148,57.086,120.062,62.928
			c46.272,5.888,94.165-5.793,132.551-32.29c37.961-26.203,65.684-65.621,77.36-110.261c12.083-46.193,5.875-95.905-16.095-138.137
			c-21.3-40.945-57.675-72.246-100.229-89.41c-43.354-17.487-93.835-17.439-137.457-0.969
			c-43.033,16.248-79.332,47.704-101.466,88.049C65.608,186.003,57.709,217.947,57.586,250c-0.062,16.124,24.938,16.118,25,0
			c0.166-43.25,16.928-84.908,46.741-116.044c15.111-15.782,31.419-27.183,51.791-36.659c3.995-1.858,7.777-3.35,13.058-5.209
			c5.497-1.936,11.107-3.539,16.766-4.928c11.738-2.881,20.181-3.938,32.027-4.439c23.088-0.976,43.298,2.304,65.373,10.264
			c9.292,3.351,18.446,7.847,28.043,13.579c9.89,5.907,16.791,11.113,24.866,18.304c16.683,14.856,28.39,30.359,38.571,50.29
			c4.852,9.496,8.124,18.111,11.311,29.256c3.173,11.096,4.924,21.433,5.745,31.592c1.896,23.479-0.61,43.807-7.688,66.01
			c-6.049,18.975-17.358,39.279-29.772,54.281c-14.321,17.305-29.598,29.751-48.738,40.435
			c-17.806,9.939-40.283,17.152-59.795,19.483c-23.417,2.798-44.551,1.007-66.47-5.082c-20.802-5.778-39.139-15.183-57.091-28.768
			c1.67,1.265-1.709-1.378-1.594-1.285c-1.022-0.821-2.025-1.664-3.029-2.507c-2.006-1.685-3.957-3.434-5.887-5.204
			c-4.183-3.835-8.142-7.909-11.945-12.119c-7.255-8.028-12.327-15.023-18.304-24.865c-11.462-18.875-18.347-38.135-22.092-60.66
			c-0.422-2.539-0.531-3.535-0.687-4.841c-0.274-2.291-0.477-4.59-0.663-6.89c-0.376-4.654-0.518-9.325-0.536-13.994
			C82.524,233.881,57.524,233.875,57.586,250z"/>
	</g>
</g>
<g>
	<g>
		<path fill="#414042" d="M262.952,257.57c18.638-31.719,37.274-63.438,55.912-95.157c9.822-16.717-16.113-31.805-25.904-15.142
			c-18.638,31.719-37.274,63.438-55.912,95.157C227.226,259.146,253.161,274.234,262.952,257.57L262.952,257.57z"/>
	</g>
</g>
<g>
	<g>
		<path fill="#414042" d="M237.048,257.572c8.628,14.46,17.257,28.921,25.885,43.381c4.183,7.01,13.422,9.542,20.522,5.382
			c7.002-4.102,9.573-13.498,5.382-20.522c-8.628-14.461-17.257-28.922-25.885-43.382c-4.183-7.009-13.421-9.541-20.523-5.381
			C235.428,241.15,232.856,250.546,237.048,257.572L237.048,257.572z"/>
	</g>
</g>
<path fill="#A7A9AC" d="M417.43,250c0,65.42-37.52,122.08-92.22,149.62c47.85-29.46,79.74-82.33,79.74-142.65
	c0-92.47-74.96-167.44-167.43-167.44c-27.02,0-52.53,6.4-75.12,17.76c25.48-15.68,55.48-24.72,87.6-24.72
	C342.47,82.57,417.43,157.53,417.43,250z"/>
</svg>
