<?xml version="1.0" encoding="utf-8"?>
<!-- Generator: Adobe Illustrator 16.0.0, SVG Export Plug-In . SVG Version: 6.00 Build 0)  -->
<!DOCTYPE svg PUBLIC "-//W3C//DTD SVG 1.1//EN" "http://www.w3.org/Graphics/SVG/1.1/DTD/svg11.dtd">
<svg version="1.1" xmlns="http://www.w3.org/2000/svg" xmlns:xlink="http://www.w3.org/1999/xlink" x="0px" y="0px" width="612px"
	 height="612px" viewBox="0 0 612 612" enable-background="new 0 0 612 612" xml:space="preserve">
<g id="Layer_1">
</g>
<g id="Layer_3">
	<path fill="#39B54A" d="M364.777,363.842h-3.826c0.058,0.939,0.087,1.879,0.087,2.828c0,26.676-21.633,48.297-48.308,48.297
		c-26.676,0-48.298-21.621-48.298-48.297c0-0.949,0.029-1.889,0.086-2.828h-3.835V184.083h104.094V363.842z"/>
	<path fill="#009444" d="M364.647,363.846h-3.819c0.049,0.939,0.08,1.869,0.08,2.82c0,26.68-21.631,48.299-48.311,48.299V184.085
		h52.05V363.846z"/>
	<g>
		<g>
			<g>
				<path fill="#E6E7E8" d="M261.067,158.348c16.122,0,16.122-25,0-25S244.946,158.348,261.067,158.348L261.067,158.348z"/>
			</g>
		</g>
		<g>
			<g>
				<path fill="#E6E7E8" d="M364.781,158.348c16.122,0,16.122-25,0-25S348.659,158.348,364.781,158.348L364.781,158.348z"/>
			</g>
		</g>
		<g>
			<g>
				<path fill="#E6E7E8" d="M248.567,145.848c0,48.389,0,96.777,0,145.166c0,23.255,0,46.51,0,69.766c0,16.121,25,16.121,25,0
					c0-48.389,0-96.778,0-145.166c0-23.255,0-46.51,0-69.766C273.567,129.726,248.567,129.726,248.567,145.848L248.567,145.848z"/>
			</g>
		</g>
		<g>
			<g>
				<path fill="#E6E7E8" d="M352.281,145.848c0,48.389,0,96.777,0,145.166c0,23.255,0,46.51,0,69.766c0,16.121,25,16.121,25,0
					c0-48.389,0-96.778,0-145.166c0-23.255,0-46.51,0-69.766C377.281,129.726,352.281,129.726,352.281,145.848L352.281,145.848z"/>
			</g>
		</g>
		<g>
			<g>
				<g>
					<path fill="#E6E7E8" d="M352.281,360.779c-0.29,21.742-17.807,39.257-39.548,39.547c-10.302,0.138-20.069-4.088-27.482-11.14
						c-0.95-0.903-1.831-1.877-2.71-2.849c-0.579-0.656-1.141-1.326-1.687-2.01c0.639,0.78,0.511,0.566-0.384-0.642
						c-1.768-2.528-3.208-5.268-4.499-8.062c0.882,1.908-0.704-2.114-0.66-1.989c-0.583-1.701-1.008-3.452-1.41-5.204
						c-0.629-2.743-0.667-3.895-0.718-7.651c-0.214-16.108-25.215-16.129-25,0c0.472,35.44,29.11,64.075,64.549,64.547
						c35.44,0.472,64.085-29.82,64.548-64.547C377.496,344.65,352.496,344.671,352.281,360.779L352.281,360.779z"/>
					<path fill="#E6E7E8" d="M248.949,360.779c0.475,35.023,28.762,63.307,63.784,63.781c35.024,0.475,63.318-29.474,63.783-63.781
						c0.219-16.129-24.782-16.108-25,0c-0.289,21.367-17.416,38.492-38.783,38.781c-10.356,0.141-20.055-4.208-27.408-11.376
						c-7.426-7.24-11.237-17.138-11.376-27.405C273.731,344.671,248.731,344.65,248.949,360.779L248.949,360.779z"/>
				</g>
			</g>
		</g>
	</g>
	<circle fill="#39B54A" cx="307.705" cy="111.398" r="18.6"/>
	<circle fill="#39B54A" cx="338.623" cy="56.116" r="11.883"/>
	<circle fill="#39B54A" cx="323.99" cy="15.817" r="9.816"/>
</g>
<g id="Layer_2">
	<g>
		<defs>
			<path id="SVGID_1_" d="M223.892,226.008l-41.749-8.875c-16.506,11.086-33.271,33.875-33.271,33.875l9.619,43.482l-0.316,6.419
				l-8.299,21.75l-4.289,3.996l-36.945,24.65c-4.357,19.289,0.242,48.865,0.242,48.865l37.363,23.252l4.759,4.656l8.667,21.252
				l0.06,5.643l-9.604,43.662c13.912,18.154,34.994,34.381,34.994,34.381l43.859-10.004l6.787,0.326l20.06,7.73l4.777,4.676
				l24.449,37.498c32.489,4.242,48.094-1.365,48.094-1.365l23.259-35.092l5.988-6.469l19.146-8.463l7.941-0.066l43.627,8.475
				c20.791-15.846,33.269-33.869,33.269-33.869l-9.425-42.914l-0.463-8.662l8.52-18.936l4.85-5.332l36.94-24.287
				c4.482-25.123-0.619-48.455-0.619-48.455l-37.936-23.426l-4.562-4.869l-7.915-20.501l-0.821-6.766l9.24-43.281
				c-16.407-21.348-34.639-34.016-34.639-34.016l-41.207,10.366l-8.86-0.495l-20.639-8.285l-5.129-5.056l-24.101-37.509
				c-41.686-2.067-47.334,0.233-47.334,0.233l-24.562,38.318l-5.059,4.376l-20.477,8.657L223.892,226.008z M384.436,295.446
				c41.649,40.906,42.258,107.855,1.322,149.507c-40.916,41.65-107.862,42.25-149.529,1.326
				c-41.64-40.928-42.235-107.865-1.312-149.539C275.836,255.107,342.774,254.502,384.436,295.446z"/>
		</defs>
		<clipPath id="SVGID_2_">
			<use xlink:href="#SVGID_1_"  overflow="visible"/>
		</clipPath>
		<polygon clip-path="url(#SVGID_2_)" fill="#E6E7E8" points="592.021,116.672 589.398,645.604 60.455,642.982 63.077,114.049 
			232.995,114.892 231.507,414.906 389.045,415.688 390.532,115.673 		"/>
	</g>
</g>
</svg>
